<svg xmlns="http://www.w3.org/2000/svg" viewBox="58 18 154 150" width="154" height="150">
  <!-- Left laurel -->
  <g fill="none" stroke="#C9A84C" stroke-width="1.8" stroke-linecap="round">
    <path d="M88,100 Q78,88 82,74"/>
    <path d="M86,105 Q72,97 72,83"/>
    <path d="M87,110 Q70,106 68,92"/>
    <path d="M89,116 Q72,116 72,102"/>
    <path d="M92,121 Q76,124 78,110"/>
    <path d="M96,125 Q82,132 86,118"/>
    <path d="M88,100 Q76,90 78,76"/>
    <path d="M90,95 Q80,81 84,69"/>
    <path d="M93,91 Q86,76 92,65"/>
  </g>

  <!-- Right laurel -->
  <g fill="none" stroke="#C9A84C" stroke-width="1.8" stroke-linecap="round">
    <path d="M182,100 Q192,88 188,74"/>
    <path d="M184,105 Q198,97 198,83"/>
    <path d="M183,110 Q200,106 202,92"/>
    <path d="M181,116 Q198,116 198,102"/>
    <path d="M178,121 Q194,124 192,110"/>
    <path d="M174,125 Q188,132 184,118"/>
    <path d="M182,100 Q194,90 192,76"/>
    <path d="M180,95 Q190,81 186,69"/>
    <path d="M177,91 Q184,76 178,65"/>
  </g>

  <!-- Bottom tie -->
  <path d="M122,140 Q135,148 148,140" fill="none" stroke="#C9A84C" stroke-width="2" stroke-linecap="round"/>
  <circle cx="135" cy="144" r="3.5" fill="#C9A84C"/>

  <!-- Shield -->
  <polygon points="135,32 165,48 165,142 135,158 105,142 105,48" fill="none" stroke="#C9A84C" stroke-width="1.5"/>

  <!-- Letter A -->
  <text x="135" y="132" text-anchor="middle" font-family="Georgia, serif" font-size="80" font-weight="900" fill="#C9A84C">A</text>

  <!-- Top star -->
  <polygon points="135,28 138,37 147,37 140,43 143,52 135,46 127,52 130,43 123,37 132,37" fill="#C9A84C"/>
</svg>
